<svg version="1.2" xmlns="http://www.w3.org/2000/svg" width="43" height="40"><path fill-rule="evenodd" d="M18.7 11.2C20.6 15 22.1 19 23.5 23H22c-2.5 0-5.1 0-7.7-.1zM0 40c1.6 0 3.2-.1 4.9-.3.3-.1.8-.3 1.2-.3 3 0 6 .6 9 .6q.1-.4.1-.7v-1.5c-1.5-.3-5.3-.3-5.3-2.3 0-1 2.6-7.9 3.3-9.4l11.6.1c.4 1.1 3.7 8.8 3.7 9.7 0 1-1.3 1.2-2 1.3l-3.4.8q-.1 1-.1 2c3.4-.1 6.8-.4 10.1-.4s6.6.4 9.9.4v-.7c0-.5-.1-.9-.1-1.4-1.3-.5-3.6-.7-4.5-1.3-.4-.3-.7-1.1-.9-1.5-1.3-2.7-2.2-5.5-3.4-8.2-1.9-4.6-3.7-9.2-5.6-13.8L23.2.6q-.2-.3-.3-.6h-3.3l-7.3 18.9-6.1 16C5.1 37.7 2.5 37.2.1 38z" style="fill:#fff"/></svg>